<svg xmlns="http://www.w3.org/2000/svg" width="207.875" height="61.937" viewBox="0 0 207.875 61.937">
  <g id="Grupo_4953" data-name="Grupo 4953" transform="translate(-660.582 220.976)">
    <g id="Grupo_4951" data-name="Grupo 4951" transform="translate(660.582 -166.983)">
      <path id="Caminho_16919" data-name="Caminho 16919" d="M1000.811-114.75a3.6,3.6,0,0,1-1.057,2.559,3.626,3.626,0,0,1-2.559,1.057H941.38a4.677,4.677,0,0,0,.365-1.808,4.677,4.677,0,0,0-.365-1.808Z" transform="translate(-792.936 116.913)" fill="#fff"/>
      <path id="Caminho_16920" data-name="Caminho 16920" d="M803.877-118.842a3.973,3.973,0,0,0-3.532,2.165H663.586c-1.659,0-3,1.618-3,3.614H800.344a3.973,3.973,0,0,0,3.532,2.165,3.976,3.976,0,0,0,3.972-3.972A3.976,3.976,0,0,0,803.877-118.842Z" transform="translate(-660.582 118.842)" fill="#fff"/>
    </g>
    <g id="Grupo_4952" data-name="Grupo 4952" transform="translate(662.389 -220.976)">
      <path id="Caminho_16921" data-name="Caminho 16921" d="M685.91-185.083a7.028,7.028,0,0,1,7.221-6.8v23.9a7.08,7.08,0,0,1-7.221,6.864Z" transform="translate(-674.327 207.264)" fill="#fff"/>
      <path id="Caminho_16922" data-name="Caminho 16922" d="M664-214.175a7.028,7.028,0,0,1,7.221-6.8V-181.7A7.08,7.08,0,0,1,664-174.837Z" transform="translate(-664 220.976)" fill="#fff"/>
      <path id="Caminho_16923" data-name="Caminho 16923" d="M719.385-161.365a5.2,5.2,0,0,1-4.994-3.431l-9.718-27.328h2.7a6.867,6.867,0,0,1,6.546,4.45l5.466,15.506,5.466-15.506a6.867,6.867,0,0,1,6.546-4.45h2.7L724.446-164.8A5.358,5.358,0,0,1,719.385-161.365Z" transform="translate(-683.171 207.377)" fill="#fff"/>
      <path id="Caminho_16924" data-name="Caminho 16924" d="M791.518-174.845a15.446,15.446,0,0,1-11.27,12.965,16.939,16.939,0,0,1-18.153-5.721c-6.141-8.134-2.632-19.32,7.018-23.132a17.276,17.276,0,0,1,15.994,1.97,16.139,16.139,0,0,1,2.969,2.542,5.225,5.225,0,0,1-1.889,8.134l-16.466,8.2a9.48,9.48,0,0,0,8.233,1.525,8.659,8.659,0,0,0,4.994-3.559,6.794,6.794,0,0,1,5.6-2.923Zm-25.172-1.081,14.644-7.308a9.588,9.588,0,0,0-9.852-.89A8.448,8.448,0,0,0,766.345-175.925Z" transform="translate(-708.796 207.256)" fill="#fff"/>
      <path id="Caminho_16925" data-name="Caminho 16925" d="M832.2-177.513c-.54,5.083,3.712,9.406,8.975,9.406h.4a6.678,6.678,0,0,1,6.884,6.482v.317h-7.289c-9.313,0-16.871-7.435-16.264-16.4.54-8.134,8.166-14.3,16.871-14.3h6.681v.318a6.678,6.678,0,0,1-6.884,6.482C836.853-185.2,832.6-181.962,832.2-177.513Z" transform="translate(-739.828 207.32)" fill="#fff"/>
      <path id="Caminho_16926" data-name="Caminho 16926" d="M890.531-174.837c-9.043,0-16.332-5.147-16.332-13.663v-25.675a7.089,7.089,0,0,1,7.289-6.8V-188.5c0,2.669,1.822,5.02,4.859,6.1a6.4,6.4,0,0,1,4.184,6.1Z" transform="translate(-763.077 220.976)" fill="#fff"/>
      <path id="Caminho_16928" data-name="Caminho 16928" d="M981.47-161.365H969.795a7.1,7.1,0,0,1,7.289-6.863h4.791a2.364,2.364,0,0,0,2.43-2.351,2.282,2.282,0,0,0-1.822-2.224l-4.994-1.207c-3.914-.89-7.086-3.94-7.559-7.69-.81-5.656,3.847-10.423,9.651-10.423h12.013a7.046,7.046,0,0,1-7.288,6.8H979.58a2.421,2.421,0,0,0-2.5,2.351,2.344,2.344,0,0,0,1.889,2.288l5.264,1.207a9.237,9.237,0,0,1,7.289,9.914C990.985-164.86,986.532-161.365,981.47-161.365Z" transform="translate(-808.136 207.377)" fill="#fff"/>
      <path id="Caminho_16929" data-name="Caminho 16929" d="M1024.243-161.365h-11.675a7.1,7.1,0,0,1,7.288-6.863h4.792a2.364,2.364,0,0,0,2.43-2.351,2.282,2.282,0,0,0-1.822-2.224l-4.994-1.207c-3.914-.89-7.086-3.94-7.558-7.69-.81-5.656,3.847-10.423,9.651-10.423h12.013a7.046,7.046,0,0,1-7.288,6.8h-4.724a2.422,2.422,0,0,0-2.5,2.351,2.345,2.345,0,0,0,1.89,2.288l5.264,1.207a9.238,9.238,0,0,1,7.289,9.914C1033.758-164.86,1029.3-161.365,1024.243-161.365Z" transform="translate(-828.297 207.377)" fill="#fff"/>
      <g id="Grupo_5108" data-name="Grupo 5108">
        <path id="Caminho_16927" data-name="Caminho 16927" d="M934.687-176.687v15.38a7.215,7.215,0,0,1-6.209-3.3,16.954,16.954,0,0,1-10.123,3.3c-9.043,0-16.332-6.863-16.332-15.38,0-8.452,7.289-15.316,16.332-15.316C927.331-192,934.687-185.14,934.687-176.687Zm-7.289,0a8.792,8.792,0,0,0-9.043-8.516,8.81,8.81,0,0,0-9.111,8.516,8.821,8.821,0,0,0,9.111,8.58A8.8,8.8,0,0,0,927.4-176.687Z" transform="translate(-776.192 207.32)" fill="#fff"/>
        <path id="Caminho_16930" data-name="Caminho 16930" d="M934.187-166.083l-5.085-2.861a.318.318,0,0,0-.316,0,.317.317,0,0,0-.157.274v5.721a.318.318,0,0,0,.157.275.321.321,0,0,0,.16.043.322.322,0,0,0,.156-.041l5.085-2.861a.319.319,0,0,0,.162-.278.319.319,0,0,0-.162-.277Zm0,0" transform="translate(-788.731 196.471)" fill="#fff"/>
      </g>
    </g>
  </g>
</svg>
