<svg xmlns="http://www.w3.org/2000/svg" width="302.569" height="90.151" viewBox="0 0 302.569 90.151"><g transform="translate(-615.749 -255.086)"><g transform="translate(615.749 333.674)"><g transform="translate(208.572 3.155)"><path d="M980.808,361.32a5.254,5.254,0,0,1-5.263,5.255H886.81V361.32Z" transform="translate(-886.81 -361.32)" fill="#fff"/></g><g transform="translate(0 0)"><g transform="translate(0 3.151)"><path d="M822.132,366.576H615.749c0-2.905,1.958-5.261,4.374-5.261H826.505C826.505,364.221,824.547,366.576,822.132,366.576Z" transform="translate(-615.749 -361.315)" fill="#aa2972"/></g><g transform="translate(202.788)"><path d="M885.075,368.782A5.781,5.781,0,1,1,890.856,363,5.788,5.788,0,0,1,885.075,368.782Z" transform="translate(-879.294 -357.22)" fill="#aa2972"/></g></g></g><g transform="translate(618.379 255.086)"><path d="M641.077,294.077c0-5.459,4.715-9.9,10.51-9.9V318.96a10.305,10.305,0,0,1-10.51,9.99Z" transform="translate(-624.218 -261.793)" fill="#aa2972"/><path d="M619.167,264.984c0-5.458,4.715-9.9,10.511-9.9v57.167a10.306,10.306,0,0,1-10.511,9.99Z" transform="translate(-619.167 -255.086)" fill="#aa2972"/><path d="M681.254,328.709a7.574,7.574,0,0,1-7.269-5L659.84,283.938h3.93a9.994,9.994,0,0,1,9.528,6.476l7.957,22.57,7.956-22.57a9.995,9.995,0,0,1,9.527-6.476h3.93l-14.047,39.776A7.8,7.8,0,0,1,681.254,328.709Z" transform="translate(-628.544 -261.737)" fill="#aa2972"/><path d="M761.479,308.972c-.983,8.326-6.777,16-16.4,18.871a24.656,24.656,0,0,1-26.423-8.326c-8.939-11.841-3.831-28.12,10.215-33.67a25.144,25.144,0,0,1,23.28,2.868,23.469,23.469,0,0,1,4.322,3.7c3.34,3.793,1.867,9.527-2.75,11.84l-23.967,11.932a13.8,13.8,0,0,0,11.984,2.221,12.607,12.607,0,0,0,7.269-5.18,9.889,9.889,0,0,1,8.153-4.256ZM724.841,307.4l21.315-10.638a13.959,13.959,0,0,0-14.341-1.295A12.3,12.3,0,0,0,724.841,307.4Z" transform="translate(-641.077 -261.796)" fill="#aa2972"/><path d="M790.7,305.149c-.785,7.4,5.4,13.69,13.064,13.69h.589c5.5,0,10.019,4.163,10.019,9.436v.462H803.764c-13.555,0-24.557-10.823-23.673-23.865.786-11.84,11.885-20.813,24.557-20.813h9.725v.462c0,5.272-4.519,9.435-10.019,9.435C797.477,293.957,791.289,298.674,790.7,305.149Z" transform="translate(-656.254 -261.765)" fill="#aa2972"/><path d="M853.137,322.242c-13.162,0-23.771-7.492-23.771-19.888V264.984c0-5.458,4.814-9.9,10.608-9.9v47.269c0,3.885,2.653,7.308,7.073,8.88a9.312,9.312,0,0,1,6.089,8.881Z" transform="translate(-667.626 -255.086)" fill="#aa2972"/><path d="M904.733,306.351v22.386a10.5,10.5,0,0,1-9.037-4.81,24.681,24.681,0,0,1-14.734,4.81c-13.163,0-23.771-9.991-23.771-22.386,0-12.3,10.609-22.292,23.771-22.292C894.027,284.059,904.733,294.05,904.733,306.351Zm-10.609,0c0-6.844-5.894-12.394-13.162-12.394-7.367,0-13.26,5.55-13.26,12.394,0,6.938,5.894,12.488,13.26,12.488C888.231,318.84,894.125,313.289,894.125,306.351Z" transform="translate(-674.04 -261.765)" fill="#aa2972"/><path d="M941.956,328.709H924.962c0-5.55,4.813-9.991,10.609-9.991h6.974a3.439,3.439,0,0,0,3.536-3.422,3.321,3.321,0,0,0-2.651-3.236L936.16,310.3c-5.7-1.3-10.314-5.735-11-11.193-1.179-8.232,5.6-15.17,14.046-15.17h17.484c0,5.459-4.714,9.9-10.609,9.9H939.2a3.524,3.524,0,0,0-3.634,3.422,3.411,3.411,0,0,0,2.751,3.33l7.661,1.758c6.778,1.664,11.394,7.678,10.609,14.43C955.805,323.622,949.323,328.709,941.956,328.709Z" transform="translate(-689.664 -261.737)" fill="#aa2972"/><path d="M984.728,328.709H967.735c0-5.55,4.813-9.991,10.608-9.991h6.975a3.44,3.44,0,0,0,3.536-3.422,3.322,3.322,0,0,0-2.652-3.236l-7.269-1.758c-5.7-1.3-10.314-5.735-11-11.193-1.179-8.232,5.6-15.17,14.046-15.17h17.484c0,5.459-4.715,9.9-10.608,9.9h-6.876a3.524,3.524,0,0,0-3.635,3.422,3.412,3.412,0,0,0,2.751,3.33l7.661,1.758c6.778,1.664,11.394,7.678,10.609,14.43C998.578,323.622,992.095,328.709,984.728,328.709Z" transform="translate(-699.525 -261.737)" fill="#aa2972"/><path d="M891.886,311.3l-7.4-4.164a.463.463,0,0,0-.689.4v8.327a.462.462,0,0,0,.229.4.469.469,0,0,0,.233.063.461.461,0,0,0,.227-.059l7.4-4.164a.462.462,0,0,0,0-.806Zm0,0" transform="translate(-680.173 -267.072)" fill="#aa2972"/></g></g></svg>