<svg xmlns="http://www.w3.org/2000/svg" xmlns:xlink="http://www.w3.org/1999/xlink" width="792.408" height="475" viewBox="0 0 792.408 475">
  <defs>
    <filter id="Retângulo_363" x="329.408" y="237" width="463" height="238" filterUnits="userSpaceOnUse">
      <feOffset dy="3" input="SourceAlpha"/>
      <feGaussianBlur stdDeviation="25" result="blur"/>
      <feFlood flood-color="#17022d" flood-opacity="0.102"/>
      <feComposite operator="in" in2="blur"/>
      <feComposite in="SourceGraphic"/>
    </filter>
    <filter id="Retângulo_363-2" x="258.408" y="0" width="463" height="351" filterUnits="userSpaceOnUse">
      <feOffset dy="3" input="SourceAlpha"/>
      <feGaussianBlur stdDeviation="25" result="blur-2"/>
      <feFlood flood-color="#17022d" flood-opacity="0.102"/>
      <feComposite operator="in" in2="blur-2"/>
      <feComposite in="SourceGraphic"/>
    </filter>
  </defs>
  <g id="Grupo_5138" data-name="Grupo 5138" transform="translate(-540.592 -1496)">
    <g id="Grupo_4818" data-name="Grupo 4818" transform="translate(-6373 358)">
      <g transform="matrix(1, 0, 0, 1, 6913.59, 1138)" filter="url(#Retângulo_363)">
        <rect id="Retângulo_363-3" data-name="Retângulo 363" width="313" height="88" rx="10" transform="translate(404.41 309)" fill="#fff"/>
      </g>
      <rect id="Retângulo_364" data-name="Retângulo 364" width="248" height="8" rx="4" transform="translate(7350 1491)" fill="#e9e9e9"/>
      <rect id="Retângulo_367" data-name="Retângulo 367" width="248" height="14" rx="7" transform="translate(7350 1469)" fill="#aa2972"/>
      <rect id="Retângulo_365" data-name="Retângulo 365" width="153" height="9" rx="4.5" transform="translate(7350 1505)" fill="#e9e9e9"/>
      <g id="Grupo_4816" data-name="Grupo 4816" transform="translate(7062.5 1193)">
        <path id="Caminho_7328" data-name="Caminho 7328" d="M281,248.24a4.243,4.243,0,0,0-4.24-4.24H248.24a4.243,4.243,0,0,0-4.24,4.24V276.76a4.243,4.243,0,0,0,4.24,4.24H276.76a4.243,4.243,0,0,0,4.24-4.24Zm0,0" fill="#33d84f"/>
        <path id="Caminho_7329" data-name="Caminho 7329" d="M402.991,409.78a1.54,1.54,0,0,1,0,2.18L392.97,421.981a1.54,1.54,0,0,1-2.18,0l-5.01-5.01a1.541,1.541,0,0,1,2.18-2.18l3.92,3.92,8.931-8.931a1.539,1.539,0,0,1,2.18,0Zm0,0" transform="translate(-131.115 -153.38)" fill="#fafafa"/>
      </g>
    </g>
    <g id="Grupo_4811" data-name="Grupo 4811" transform="translate(-6638 -20.271)">
      <g transform="matrix(1, 0, 0, 1, 7178.59, 1516.27)" filter="url(#Retângulo_363-2)">
        <rect id="Retângulo_363-4" data-name="Retângulo 363" width="313" height="201" rx="10" transform="translate(333.41 72)" fill="#fff"/>
      </g>
      <g id="Grupo_4811-2" data-name="Grupo 4811" transform="translate(7544.489 1685.466)">
        <rect id="Retângulo_364-2" data-name="Retângulo 364" width="248" height="8" rx="4" transform="translate(-0.489 21.805)" fill="#e9e9e9"/>
        <rect id="Retângulo_367-2" data-name="Retângulo 367" width="248" height="14" rx="7" transform="translate(-0.489 -0.195)" fill="#aa2972"/>
        <rect id="Retângulo_365-2" data-name="Retângulo 365" width="248" height="9" rx="4.5" transform="translate(-0.489 35.805)" fill="#e9e9e9"/>
        <rect id="Retângulo_403" data-name="Retângulo 403" width="248" height="9" rx="4.5" transform="translate(-0.489 49.805)" fill="#e9e9e9"/>
        <rect id="Retângulo_404" data-name="Retângulo 404" width="153" height="9" rx="4.5" transform="translate(-0.489 63.805)" fill="#e9e9e9"/>
      </g>
      <path id="Retângulo_405" data-name="Retângulo 405" d="M10,0H303a10,10,0,0,1,10,10V70a0,0,0,0,1,0,0H0a0,0,0,0,1,0,0V10A10,10,0,0,1,10,0Z" transform="translate(7512 1588.271)" fill="#5183cb"/>
    </g>
    <g id="Grupo_5060" data-name="Grupo 5060" transform="translate(-4.408 -1261)">
      <path id="Caminho_16943" data-name="Caminho 16943" d="M333.739,108.611c37.981,32.778,77.784,78.824,76.483,127.732s-43.7,100.937-99.9,130.594c-56.452,29.657-126.431,36.941-182.883,11.446C71.251,352.628,29.107,294.1,23.124,236.6,17.4,178.85,48.1,122.138,87.64,88.579c39.542-33.3,87.93-43.184,130.333-38.242C260.117,55.281,296.018,75.572,333.739,108.611Z" transform="translate(522.564 2728.465)" fill="#f2f4fb"/>
      <g id="Grupo_5049" data-name="Grupo 5049" transform="translate(565.022 2778.457)">
        <g id="Wire" transform="translate(100.476 223.794)">
          <path id="Wire-2" data-name="Wire" d="M142.353,359.437v7.838a13.743,13.743,0,0,0,6.919,11.931c14.315,8.188,46.145,26.4,49.607,28.4,16.652,9.614,28.976,15.659,44.83,6.505s3.679-18.46-5.633-19.37c-17.07-1.67-21.037,9.169-11.037,12.355s31.216-6.409,3.221-20.058c-15.561-7.586-25.894-12.231-31.477-14.657-2.623-1.14-2.888-3.356-.567-4.7l42.118-24.317c3.769-2.176,14.8,1.481,10.757,4.143-3.6,2.371-29.154,17.293-36.172,21.39a1.212,1.212,0,0,0,.014,2.295h0a4.4,4.4,0,0,0,4.017-.017L252,351.584a8.512,8.512,0,0,1,7.2-.279c4.007,1.817,11.772,5.441,26.136,12.443,28,13.648,6.78,23.243-3.221,20.058s-6.033-14.025,11.037-12.355c9.311.91,22.509,9.626,5.632,19.37l-9.866,5.7" transform="translate(-142.353 -342.703)" fill="none" stroke="#33264c" stroke-linecap="round" stroke-linejoin="round" stroke-width="3.564"/>
          <g id="Plug" transform="translate(126.522 49.585)">
            <g id="Grupo_5008" data-name="Grupo 5008" transform="translate(16.145)">
              <path id="Caminho_16944" data-name="Caminho 16944" d="M379.691,422.869a1.1,1.1,0,0,1,1.1.11,3.447,3.447,0,0,1,1.559,2.7,1.092,1.092,0,0,1-.463,1.013l-6.233,3.6-2.2-3.825Z" transform="translate(-372.995 -422.766)" fill="#2f1c47"/>
              <path id="Caminho_16945" data-name="Caminho 16945" d="M383.04,425.943a2.818,2.818,0,0,1,.187.947,1.092,1.092,0,0,1-.463,1.013l-6.233,3.6-.777-1.352Z" transform="translate(-373.869 -423.975)" opacity="0.1"/>
              <path id="Caminho_16946" data-name="Caminho 16946" d="M375.83,431.5a3.448,3.448,0,0,0-1.56-2.7.95.95,0,0,0-1.559.9,3.447,3.447,0,0,0,1.559,2.7.951.951,0,0,0,1.56-.9Z" transform="translate(-372.71 -424.98)" fill="#2f1c47"/>
            </g>
            <g id="Grupo_5009" data-name="Grupo 5009" transform="translate(10.449 1.158)">
              <path id="Caminho_16947" data-name="Caminho 16947" d="M372.772,424.772a1.453,1.453,0,0,1,1.463.145A4.572,4.572,0,0,1,376.3,428.5a1.449,1.449,0,0,1-.614,1.344l-8.267,4.773-2.916-5.073Z" transform="translate(-363.891 -424.635)" fill="#33264c"/>
              <path id="Caminho_16948" data-name="Caminho 16948" d="M377.213,428.849a3.734,3.734,0,0,1,.248,1.256,1.449,1.449,0,0,1-.614,1.344l-8.267,4.773-1.031-1.794Z" transform="translate(-365.049 -426.239)" opacity="0.1"/>
              <path id="Caminho_16949" data-name="Caminho 16949" d="M367.65,436.215a4.573,4.573,0,0,0-2.069-3.583,1.261,1.261,0,0,0-2.069,1.195,4.572,4.572,0,0,0,2.069,3.583,1.261,1.261,0,0,0,2.069-1.194Z" transform="translate(-363.512 -427.571)" fill="#2f1c47"/>
            </g>
            <g id="Grupo_5014" data-name="Grupo 5014" transform="translate(0 7.091)">
              <g id="Grupo_5010" data-name="Grupo 5010" transform="translate(1.011)">
                <path id="Caminho_16950" data-name="Caminho 16950" d="M359.781,434.376a.83.83,0,0,0-.824-.085l-8.1,5.153-2.578,1.015,1.654,2.877,2.169-1.727,8.514-4.441a.826.826,0,0,0,.343-.76A2.594,2.594,0,0,0,359.781,434.376Z" transform="translate(-348.274 -434.215)" fill="#aa2972"/>
                <path id="Caminho_16951" data-name="Caminho 16951" d="M359.781,434.376a.83.83,0,0,0-.824-.085l-8.1,5.153-2.578,1.015,1.654,2.877,2.169-1.727,8.514-4.441a.826.826,0,0,0,.343-.76A2.594,2.594,0,0,0,359.781,434.376Z" transform="translate(-348.274 -434.215)" fill="#fff" opacity="0.7"/>
              </g>
              <g id="Grupo_5011" data-name="Grupo 5011" transform="translate(0.205 6.167)">
                <path id="Caminho_16952" data-name="Caminho 16952" d="M348.6,444.334a.827.827,0,0,0-.824-.085.555.555,0,0,0-.111.084h0l-.7.652,1.423,2.471.891-.269h0a.544.544,0,0,0,.146-.059.824.824,0,0,0,.344-.759A2.6,2.6,0,0,0,348.6,444.334Z" transform="translate(-346.972 -444.174)" fill="#aa2972"/>
                <path id="Caminho_16953" data-name="Caminho 16953" d="M348.6,444.334a.827.827,0,0,0-.824-.085.555.555,0,0,0-.111.084h0l-.7.652,1.423,2.471.891-.269h0a.544.544,0,0,0,.146-.059.824.824,0,0,0,.344-.759A2.6,2.6,0,0,0,348.6,444.334Z" transform="translate(-346.972 -444.174)" fill="#fff" opacity="0.5"/>
              </g>
              <path id="Caminho_16954" data-name="Caminho 16954" d="M348.677,447.162a2.25,2.25,0,0,0-1.018-1.763.719.719,0,0,0-.715-.074.712.712,0,0,0-.3.662,2.25,2.25,0,0,0,1.018,1.763.62.62,0,0,0,1.018-.588Z" transform="translate(-346.641 -438.42)" fill="#aa2972"/>
              <g id="Grupo_5012" data-name="Grupo 5012" transform="translate(3.589 0.719)" opacity="0.2">
                <path id="Caminho_16955" data-name="Caminho 16955" d="M352.436,442.5a.621.621,0,0,1,.619.064,1.95,1.95,0,0,1,.881,1.527.627.627,0,0,1-.256.575L354,444.5a.654.654,0,0,0,.253-.59,1.949,1.949,0,0,0-.881-1.527.655.655,0,0,0-.632-.076Z" transform="translate(-352.436 -437.996)" fill="#aa2972"/>
                <path id="Caminho_16956" data-name="Caminho 16956" d="M355.986,440.233a.679.679,0,0,1,.674.07,2.124,2.124,0,0,1,.96,1.663.683.683,0,0,1-.278.627l.352-.183a.713.713,0,0,0,.275-.643,2.121,2.121,0,0,0-.96-1.663.711.711,0,0,0-.689-.083Z" transform="translate(-353.787 -437.123)" fill="#aa2972"/>
                <path id="Caminho_16957" data-name="Caminho 16957" d="M359.535,437.962a.735.735,0,0,1,.73.076,2.3,2.3,0,0,1,1.039,1.8.739.739,0,0,1-.3.678l.381-.2a.771.771,0,0,0,.3-.7,2.3,2.3,0,0,0-1.039-1.8.771.771,0,0,0-.745-.09Z" transform="translate(-355.138 -436.25)" fill="#aa2972"/>
                <path id="Caminho_16958" data-name="Caminho 16958" d="M363.085,435.69a.791.791,0,0,1,.785.082,2.47,2.47,0,0,1,1.118,1.936.8.8,0,0,1-.324.73l.409-.214a.829.829,0,0,0,.32-.748,2.471,2.471,0,0,0-1.118-1.937.829.829,0,0,0-.8-.1Z" transform="translate(-356.49 -435.377)" fill="#aa2972"/>
              </g>
              <g id="Grupo_5013" data-name="Grupo 5013" transform="translate(3.589 0.719)" opacity="0.1">
                <path id="Caminho_16959" data-name="Caminho 16959" d="M352.436,442.5a.621.621,0,0,1,.619.064,1.95,1.95,0,0,1,.881,1.527.627.627,0,0,1-.256.575L354,444.5a.654.654,0,0,0,.253-.59,1.949,1.949,0,0,0-.881-1.527.655.655,0,0,0-.632-.076Z" transform="translate(-352.436 -437.996)"/>
                <path id="Caminho_16960" data-name="Caminho 16960" d="M355.986,440.233a.679.679,0,0,1,.674.07,2.124,2.124,0,0,1,.96,1.663.683.683,0,0,1-.278.627l.352-.183a.713.713,0,0,0,.275-.643,2.121,2.121,0,0,0-.96-1.663.711.711,0,0,0-.689-.083Z" transform="translate(-353.787 -437.123)"/>
                <path id="Caminho_16961" data-name="Caminho 16961" d="M359.535,437.962a.735.735,0,0,1,.73.076,2.3,2.3,0,0,1,1.039,1.8.739.739,0,0,1-.3.678l.381-.2a.771.771,0,0,0,.3-.7,2.3,2.3,0,0,0-1.039-1.8.771.771,0,0,0-.745-.09Z" transform="translate(-355.138 -436.25)"/>
                <path id="Caminho_16962" data-name="Caminho 16962" d="M363.085,435.69a.791.791,0,0,1,.785.082,2.47,2.47,0,0,1,1.118,1.936.8.8,0,0,1-.324.73l.409-.214a.829.829,0,0,0,.32-.748,2.471,2.471,0,0,0-1.118-1.937.829.829,0,0,0-.8-.1Z" transform="translate(-356.49 -435.377)"/>
              </g>
            </g>
          </g>
        </g>
        <g id="Headphones" transform="translate(32.343 30.333)">
          <g id="Grupo_5024" data-name="Grupo 5024" transform="translate(86.679 75.176)">
            <g id="Grupo_5016" data-name="Grupo 5016" transform="translate(30.054 19.103)">
              <path id="Caminho_16963" data-name="Caminho 16963" d="M231.567,189.6c-.229.091-.456.184-.676.291-.177.086-.348.184-.519.281-.21.119-.418.24-.619.374-.165.11-.325.229-.484.349-.193.146-.382.3-.565.457-.152.133-.3.271-.445.414q-.262.259-.51.538c-.137.155-.271.313-.4.478-.157.2-.307.408-.454.621-.115.167-.229.336-.337.512-.024.04-.047.082-.071.123-.118.2-.23.4-.34.606-.032.061-.063.124-.095.186-.085.168-.172.336-.252.512-.069.15-.131.308-.2.463-.042.1-.084.2-.123.3s-.074.186-.11.282c-.074.2-.142.4-.209.608-.058.177-.112.356-.165.538q-.142.491-.261,1.005c-.053.232-.1.469-.146.709-.025.129-.052.256-.074.388s-.05.282-.071.427c-.052.35-.09.713-.126,1.078-.017.174-.043.34-.056.517-.006.066-.009.132-.014.2-.041.594-.068,1.2-.068,1.83a33.909,33.909,0,0,0,.9,7.488c2.316,10.145,8.908,20.612,16.973,26.6A31.125,31.125,0,0,0,245,239.737c.139.081.277.151.416.229.236.131.473.263.707.385.181.094.362.178.543.266s.386.189.578.276.394.172.59.254c.172.072.342.144.513.211.2.079.405.153.606.224q.245.087.489.167c.2.065.4.127.591.184.174.051.346.1.519.14s.357.094.534.133c.237.053.472.1.707.139.108.019.217.043.324.061s.185.02.278.033l4.229-2.431a20.628,20.628,0,0,1-7.4-2.707c-11.5-6.64-20.824-22.777-20.824-36.058,0-5.377,1.535-9.453,4.124-11.967-.136.039-.275.069-.408.114C231.927,189.45,231.748,189.526,231.567,189.6Z" transform="translate(-222.103 -185.116)" fill="#17022d"/>
              <g id="Grupo_5015" data-name="Grupo 5015">
                <path id="Caminho_16964" data-name="Caminho 16964" d="M238.4,182.56a11.81,11.81,0,0,0-1.851.84c-.72.416-3.52,2.033-4.207,2.428,0,0,0,.015-.006.022a12.693,12.693,0,0,1,6.063-1.643Z" transform="translate(-225.209 -182.56)" fill="#2f1c47"/>
                <path id="Caminho_16965" data-name="Caminho 16965" d="M250.839,240.86c-.107-.016-.216-.041-.323-.06-.235-.041-.47-.085-.709-.139-.177-.04-.355-.087-.533-.133-.117-.03-.232-.054-.35-.087-.056-.016-.113-.037-.17-.053-.2-.057-.393-.119-.591-.184-.163-.053-.326-.108-.49-.167-.2-.071-.4-.145-.6-.224-.171-.067-.343-.139-.515-.211-.2-.082-.391-.164-.587-.253s-.388-.184-.583-.279c-.18-.087-.359-.17-.539-.264-.237-.122-.477-.256-.716-.389-.135-.075-.269-.142-.405-.22a30.976,30.976,0,0,1-2.846-1.9,40.359,40.359,0,0,1-7.08-6.739,49.916,49.916,0,0,1-4.8-6.909,47.637,47.637,0,0,1-5.162-12.829c-.017-.071-.026-.141-.042-.212a33.812,33.812,0,0,1-.9-7.473c0-.581.025-1.145.061-1.7.006-.081.007-.165.014-.245,0-.056.011-.111.015-.167.038-.465.088-.922.152-1.367.013-.095.026-.191.04-.285.023-.148.054-.288.079-.434.037-.206.078-.409.121-.611.045-.217.087-.437.138-.648.057-.23.126-.447.19-.67.024-.084.046-.169.071-.252.01-.032.017-.066.027-.1.057-.183.113-.366.175-.543.077-.219.163-.426.247-.637.108-.27.216-.539.336-.795.087-.185.18-.362.274-.541.037-.071.073-.142.111-.212.1-.185.2-.366.313-.542s.2-.318.305-.472c.046-.07.094-.139.141-.207.079-.112.157-.226.238-.334.061-.081.126-.158.189-.237s.11-.142.168-.211c.112-.134.229-.263.346-.39.037-.04.074-.081.111-.12q.215-.226.44-.437l0,0c.069-.064.146-.113.217-.175.183-.16.372-.312.565-.457.159-.12.319-.238.484-.349.2-.134.409-.255.619-.374.172-.1.342-.194.519-.281.22-.107.448-.2.676-.291.181-.072.36-.149.546-.211.139-.047.281-.087.423-.128.1-.03.211-.052.316-.079.187-.048.371-.1.562-.14.266-.053.542-.084.817-.118.186-.023.368-.055.558-.069.165-.012.338-.009.507-.011v-2.08a12.693,12.693,0,0,0-6.063,1.642h0c-.262.152-.517.315-.766.485l-.129.091a12.274,12.274,0,0,0-1.994,1.763c-.067.074-.134.147-.2.223-.18.207-.357.417-.526.638-.053.069-.1.143-.154.214a14.063,14.063,0,0,0-.794,1.205c-.091.154-.183.308-.269.468q-.165.3-.319.62c-.1.212-.2.431-.3.652s-.188.432-.274.656c-.134.348-.259.7-.375,1.07-.056.174-.105.354-.157.532q-.133.468-.247.953c-.037.158-.076.313-.11.474-.1.473-.186.956-.257,1.452-.017.12-.029.245-.045.366q-.08.623-.13,1.269c-.012.154-.024.308-.033.464-.033.549-.055,1.106-.055,1.678a37.621,37.621,0,0,0,1.721,10.807,49.217,49.217,0,0,0,2.017,5.451q.59,1.348,1.26,2.671a53.659,53.659,0,0,0,4.647,7.561,41.427,41.427,0,0,0,12.213,11.367,24.658,24.658,0,0,0,5.728,2.455l2.7-1.553C251.021,240.884,250.931,240.875,250.839,240.86Z" transform="translate(-220.826 -183.573)" fill="#33264c"/>
              </g>
            </g>
            <g id="Grupo_5018" data-name="Grupo 5018" transform="translate(34.093 19.873)">
              <g id="Grupo_5017" data-name="Grupo 5017">
                <path id="Caminho_16966" data-name="Caminho 16966" d="M274.516,219.3c0-12.113-8.5-26.842-18.994-32.9-5.261-3.037-10.021-3.315-13.461-1.311-1.045.609-8.07,4.649-9.12,5.25-3.455,1.976-5.594,6.238-5.594,12.312,0,12.113,8.5,26.842,18.994,32.9,5.255,3.034,10.011,3.315,13.449,1.318,1.05-.61,8.11-4.666,9.171-5.28C272.394,229.6,274.516,225.346,274.516,219.3Z" transform="translate(-227.347 -183.803)" fill="#aa2972"/>
                <path id="Caminho_16967" data-name="Caminho 16967" d="M274.516,219.3c0-12.113-8.5-26.842-18.994-32.9-5.261-3.037-10.021-3.315-13.461-1.311-1.045.609-8.07,4.649-9.12,5.25-3.455,1.976-5.594,6.238-5.594,12.312,0,12.113,8.5,26.842,18.994,32.9,5.255,3.034,10.011,3.315,13.449,1.318,1.05-.61,8.11-4.666,9.171-5.28C272.394,229.6,274.516,225.346,274.516,219.3Z" transform="translate(-227.347 -183.803)" opacity="0.3"/>
              </g>
              <path id="Caminho_16968" data-name="Caminho 16968" d="M246.341,194.929c10.49,6.056,18.994,20.785,18.994,32.9s-8.5,17.023-18.994,10.966-18.994-20.786-18.994-32.9S235.851,188.872,246.341,194.929Z" transform="translate(-227.347 -187.051)" fill="#aa2972"/>
            </g>
            <g id="Grupo_5019" data-name="Grupo 5019" transform="translate(56.133 4.874)">
              <path id="Caminho_16969" data-name="Caminho 16969" d="M270.518,273.528l.095,0c.32.024.638.038.953.039.051,0,.1,0,.152,0a12.6,12.6,0,0,0,1.366-.079l.048,0a11.2,11.2,0,0,0,1.128-.206c.157-.036.314-.071.468-.114.3-.081.583-.176.866-.281.217-.082.429-.174.638-.27.1-.045.2-.1.3-.144a10,10,0,0,0,2.5-1.768,12.215,12.215,0,0,1-5.065.3l-4.229,2.431C270,273.47,270.26,273.507,270.518,273.528Z" transform="translate(-265.523 -201.883)" fill="#17022d"/>
              <path id="Caminho_16970" data-name="Caminho 16970" d="M265.012,178.87a6.659,6.659,0,0,0,1.968,4.292c9.047,8.313,15.667,21.819,15.667,33.254,0,8.328-3.5,14.267-9.208,16.232h0a10.3,10.3,0,0,0,2.092-.948l4.205-2.428c4.471-2.576,7.131-8.027,7.131-15.292,0-11.435-6.62-24.942-15.668-33.254a6.658,6.658,0,0,1-1.968-4.292V159.584l-4.22,2.437-2.078-1.2,2.078,1.2Z" transform="translate(-262.934 -159.584)" fill="#2f1c47"/>
              <path id="Caminho_16971" data-name="Caminho 16971" d="M266.98,183.922a6.659,6.659,0,0,1-1.968-4.292V162.781l-2.078-1.2v19.056a4.149,4.149,0,0,0,.083.752c.012.064.025.127.04.191a6.05,6.05,0,0,0,.23.778,7.147,7.147,0,0,0,.55,1.137c.054.09.113.173.17.259a6.119,6.119,0,0,0,.545.723,4.67,4.67,0,0,0,.4.395l0,0c.5.435.987.894,1.471,1.361.129.124.256.251.384.377q.634.63,1.249,1.291c.061.065.123.128.183.194.459.5.907,1.019,1.347,1.546.114.137.226.275.339.414q.546.669,1.072,1.362c.084.11.169.219.252.33q.62.832,1.206,1.7c.093.137.183.276.275.413q.478.718.934,1.454c.087.141.176.281.261.422q.543.9,1.05,1.813c.067.122.13.245.2.367q.419.775.809,1.561c.081.162.162.324.24.487.3.629.6,1.262.873,1.9.036.083.068.167.1.25q.362.851.688,1.711c.066.172.131.344.194.517.24.651.469,1.3.676,1.958s.393,1.311.567,1.967c.037.141.075.281.11.421.163.64.312,1.28.441,1.917.021.107.039.213.059.32q.17.878.3,1.749c.015.105.033.211.047.316.085.631.149,1.258.2,1.882.01.136.018.272.027.408.041.637.069,1.272.069,1.9a19.12,19.12,0,0,1-2.052,9.236,12.366,12.366,0,0,1-.961,1.488q-.261.346-.541.663t-.574.6a9.99,9.99,0,0,1-2.5,1.768c-.1.05-.2.1-.3.146-.209.095-.42.188-.637.269-.261.1-.527.187-.8.265l-.068.017c-.154.041-.31.078-.468.114-.094.022-.186.049-.281.068q-.416.085-.847.138l-.048,0a12.17,12.17,0,0,1-1.366.079c-.029,0-.056,0-.085,0s-.045,0-.068,0c-.068,0-.133,0-.2,0-.248-.006-.5-.022-.754-.042l-.094,0c-.259-.022-.523-.055-.787-.091l-2.7,1.553a17.253,17.253,0,0,0,4.608.666c.214,0,.419-.023.629-.032.276-.013.562-.016.821-.042.163-.016.319-.048.479-.069.3-.041.6-.084.881-.139.146-.03.287-.067.429-.1.063-.015.113-.033.174-.048.267-.068.535-.134.793-.219.061-.02.123-.038.184-.059,5.711-1.965,9.208-7.9,9.208-16.232C282.647,205.741,276.027,192.235,266.98,183.922Z" transform="translate(-262.934 -160.344)" fill="#33264c"/>
            </g>
            <g id="Grupo_5020" data-name="Grupo 5020" transform="translate(43.247)">
              <path id="Caminho_16972" data-name="Caminho 16972" d="M250.946,174.955c.03-.012.061-.023.091-.037.047-.022.1-.046.141-.072.512-.3,3.791-2.19,4.223-2.442a1.785,1.785,0,0,0,.825-1.637V151.715l-4.221,2.437v19.056A1.735,1.735,0,0,1,250.946,174.955Z" transform="translate(-245.485 -151.715)" fill="#2f1c47"/>
              <path id="Caminho_16973" data-name="Caminho 16973" d="M242.533,183.69a16.429,16.429,0,0,1,3.021.287.809.809,0,0,0,1.016-.82v-1.893a13.327,13.327,0,0,0-4.442.8v1.648C242.265,183.711,242.394,183.69,242.533,183.69Z" transform="translate(-242.128 -162.963)" fill="#2f1c47"/>
              <path id="Caminho_16974" data-name="Caminho 16974" d="M243.064,175.287a14.291,14.291,0,0,1,1.5.14c.482.071.975.174,1.474.3.03.007.058.011.088.018s.036.006.054.011h0a2.915,2.915,0,0,0,.485.079l.044,0a2.316,2.316,0,0,0,.406-.011l.072-.01a1.92,1.92,0,0,0,.372-.092l.028-.011a1.735,1.735,0,0,0,1.06-1.748V154.907h0L246.57,153.7v18.966a.809.809,0,0,1-1.016.82,16.429,16.429,0,0,0-3.021-.287c-.139,0-.268.021-.405.025v2.08c.147,0,.292-.009.44-.009C242.734,175.293,242.9,175.28,243.064,175.287Z" transform="translate(-242.128 -152.469)" fill="#33264c"/>
            </g>
            <g id="Grupo_5021" data-name="Grupo 5021" transform="translate(3.12 9.722)">
              <path id="Caminho_16975" data-name="Caminho 16975" d="M260.681,227.474c0-17.9-12.566-39.662-28.066-48.611-7.741-4.47-14.746-4.891-19.822-1.968-1.423.819-7.055,4.072-8.476,4.893-5.072,2.933-8.21,9.211-8.21,18.152,0,17.9,12.566,39.662,28.066,48.611,7.739,4.468,14.742,4.891,19.817,1.97,1.424-.819,7.052-4.072,8.47-4.89C257.538,242.7,260.681,236.42,260.681,227.474Z" transform="translate(-184.483 -170.314)" fill="#aa2972"/>
              <ellipse id="Elipse_329" data-name="Elipse 329" cx="22.915" cy="39.691" rx="22.915" ry="39.691" transform="translate(0 22.915) rotate(-30)" opacity="0.1"/>
            </g>
            <g id="Grupo_5022" data-name="Grupo 5022" transform="translate(10.535 19.319)">
              <path id="Caminho_16976" data-name="Caminho 16976" d="M249.66,235.349c0-17.9-12.565-39.662-28.066-48.611-7.755-4.477-14.772-4.893-19.851-1.953l-4.2,2.425c-5.086,2.928-8.235,9.214-8.235,18.169,0,17.9,12.566,39.662,28.066,48.611,7.752,4.475,14.766,4.893,19.844,1.958l4.224-2.439C246.519,250.576,249.66,244.294,249.66,235.349Z" transform="translate(-189.309 -182.908)" fill="#f0f0f0"/>
              <path id="Caminho_16977" data-name="Caminho 16977" d="M217.374,190.67c15.5,8.949,28.066,30.713,28.066,48.611s-12.565,25.152-28.065,16.2-28.066-30.713-28.066-48.611S201.874,181.721,217.374,190.67Z" transform="translate(-189.309 -184.404)" fill="#e0e0e0"/>
            </g>
            <g id="Grupo_5023" data-name="Grupo 5023" transform="translate(0 19.679)">
              <path id="Caminho_16978" data-name="Caminho 16978" d="M241.028,238.011c0-18.532-13.056-41.146-29.1-50.412a27.366,27.366,0,0,0-13.572-4.111,16.362,16.362,0,0,0-8.361,2.163c-1.4.818-7.062,4.054-8.5,4.894-5.764,3.373-9.194,10.472-9.194,19.932,0,18.53,13.056,41.145,29.1,50.411A27.371,27.371,0,0,0,214.977,265a16.352,16.352,0,0,0,8.409-2.191c1.38-.813,6.972-4.01,8.392-4.833C237.576,254.617,241.028,247.5,241.028,238.011Z" transform="translate(-172.299 -183.489)" fill="#33264c"/>
              <path id="Caminho_16979" data-name="Caminho 16979" d="M214.977,268a27.371,27.371,0,0,1-13.574-4.111c-16.048-9.266-29.1-31.881-29.1-50.411,0-13.435,6.912-22.115,17.61-22.115a27.37,27.37,0,0,1,13.573,4.111c16.048,9.266,29.1,31.88,29.1,50.411C232.586,259.315,225.674,268,214.977,268Z" transform="translate(-172.299 -186.484)" fill="#2f1c47"/>
              <path id="Caminho_16980" data-name="Caminho 16980" d="M217.977,260.6a13.668,13.668,0,0,1-6.779-2.053c-8.015-4.628-14.535-15.922-14.535-25.176,0-6.709,3.452-11.045,8.8-11.045a13.664,13.664,0,0,1,6.778,2.053c8.015,4.628,14.535,15.921,14.535,25.176C226.771,256.268,223.32,260.6,217.977,260.6Z" transform="translate(-181.574 -198.274)" fill="#17022d"/>
            </g>
          </g>
          <g id="Grupo_5035" data-name="Grupo 5035" transform="translate(0 134.169)">
            <g id="Grupo_5025" data-name="Grupo 5025" transform="translate(18.561)">
              <path id="Caminho_16981" data-name="Caminho 16981" d="M131.041,301.489c0-18.532-13.056-41.145-29.1-50.411a27.363,27.363,0,0,0-13.573-4.111A16.358,16.358,0,0,0,80,249.13c-1.4.818-7.062,4.054-8.5,4.894-5.764,3.372-9.194,10.471-9.194,19.931,0,18.531,13.056,41.145,29.1,50.412a27.372,27.372,0,0,0,13.573,4.111,16.346,16.346,0,0,0,8.409-2.191c1.38-.813,6.972-4.01,8.392-4.833C127.59,318.095,131.041,310.981,131.041,301.489Z" transform="translate(-62.312 -246.967)" fill="#33264c"/>
              <path id="Caminho_16982" data-name="Caminho 16982" d="M104.99,331.474a27.372,27.372,0,0,1-13.573-4.111c-16.049-9.267-29.1-31.881-29.1-50.412,0-13.435,6.913-22.115,17.61-22.115a27.368,27.368,0,0,1,13.573,4.111c16.049,9.266,29.1,31.88,29.1,50.412C122.6,322.794,115.688,331.474,104.99,331.474Z" transform="translate(-62.312 -249.963)" fill="#2f1c47"/>
            </g>
            <g id="Grupo_5026" data-name="Grupo 5026" transform="translate(16.419 6.953)">
              <path id="Caminho_16983" data-name="Caminho 16983" d="M119.206,310.634c0-17.9-12.566-39.662-28.066-48.611-7.755-4.477-14.773-4.893-19.851-1.953-.7.406-3.5,2.022-4.2,2.425-5.086,2.928-8.235,9.214-8.235,18.17,0,17.9,12.566,39.661,28.066,48.611,7.752,4.475,14.766,4.893,19.844,1.958l4.224-2.439C116.064,325.861,119.206,319.579,119.206,310.634Z" transform="translate(-58.854 -258.193)" fill="#f0f0f0"/>
              <path id="Caminho_16984" data-name="Caminho 16984" d="M86.92,265.956c15.5,8.949,28.065,30.713,28.065,48.611s-12.565,25.152-28.065,16.2S58.854,300.057,58.854,282.16,71.419,257.007,86.92,265.956Z" transform="translate(-58.854 -259.689)" fill="#e0e0e0"/>
            </g>
            <g id="Grupo_5027" data-name="Grupo 5027" transform="translate(7.977 9.39)">
              <path id="Caminho_16985" data-name="Caminho 16985" d="M109.8,314.569c0-17.9-12.565-39.662-28.066-48.611-7.741-4.469-14.746-4.891-19.822-1.968-1.423.819-7.055,4.072-8.476,4.893-5.072,2.933-8.21,9.211-8.21,18.152,0,17.9,12.566,39.662,28.066,48.611,7.739,4.468,14.742,4.891,19.817,1.971,1.424-.82,7.053-4.072,8.471-4.89C106.654,329.8,109.8,323.515,109.8,314.569Z" transform="translate(-45.223 -262.129)" fill="#aa2972"/>
              <path id="Caminho_16986" data-name="Caminho 16986" d="M73.289,273.825c15.5,8.949,28.066,30.713,28.066,48.611s-12.566,25.153-28.066,16.2-28.066-30.713-28.066-48.611S57.788,264.876,73.289,273.825Z" transform="translate(-45.223 -265.122)" opacity="0.1"/>
            </g>
            <g id="Grupo_5029" data-name="Grupo 5029" transform="translate(6.405 23.795)">
              <path id="Caminho_16987" data-name="Caminho 16987" d="M53.426,292.426c-.229.091-.456.183-.676.291-.177.086-.348.184-.519.281-.21.119-.419.24-.619.374-.165.11-.325.229-.484.349-.193.146-.382.3-.565.457-.152.133-.3.271-.444.414q-.262.258-.51.538c-.137.155-.271.313-.4.478-.157.2-.307.408-.453.621-.115.167-.229.336-.337.512-.025.04-.047.082-.071.123-.118.2-.231.4-.34.606-.032.061-.063.124-.1.186-.085.168-.172.336-.251.512-.069.15-.131.308-.2.463-.041.1-.084.2-.123.3s-.074.186-.11.281c-.074.2-.142.4-.209.609-.058.177-.112.356-.165.538q-.143.491-.261,1.005c-.053.232-.1.469-.146.709-.024.129-.051.256-.074.388s-.05.283-.071.427c-.052.35-.09.713-.126,1.078-.017.174-.043.34-.057.517,0,.066-.009.132-.013.2-.041.593-.068,1.2-.068,1.829a33.9,33.9,0,0,0,.9,7.487c2.317,10.146,8.908,20.613,16.973,26.6a31.133,31.133,0,0,0,2.949,1.971c.139.081.277.151.416.229.237.131.473.263.707.384.182.094.362.178.543.266s.387.19.579.277.393.172.59.254c.171.072.342.144.513.21.2.08.405.154.606.225q.245.087.489.167c.2.065.4.127.591.184.174.051.346.1.519.14s.357.094.534.133c.237.053.473.1.707.139.107.019.217.043.324.06s.185.021.278.033l4.229-2.431a20.634,20.634,0,0,1-7.4-2.707c-11.5-6.64-20.824-22.777-20.824-36.058,0-5.377,1.535-9.453,4.124-11.967-.136.039-.275.069-.408.113C53.786,292.277,53.607,292.353,53.426,292.426Z" transform="translate(-43.962 -287.943)" fill="#17022d"/>
              <g id="Grupo_5028" data-name="Grupo 5028">
                <path id="Caminho_16988" data-name="Caminho 16988" d="M60.26,285.387a11.763,11.763,0,0,0-1.851.84c-.72.416-3.52,2.033-4.206,2.428,0,0,0,.015-.006.022a12.688,12.688,0,0,1,6.063-1.642Z" transform="translate(-47.067 -285.387)" fill="#2f1c47"/>
                <path id="Caminho_16989" data-name="Caminho 16989" d="M72.7,343.687c-.107-.016-.215-.041-.322-.06-.235-.042-.47-.085-.709-.139-.177-.04-.356-.087-.534-.133-.116-.03-.232-.054-.349-.087-.056-.015-.113-.037-.17-.053-.2-.057-.393-.119-.591-.183-.163-.053-.326-.109-.49-.167-.2-.071-.4-.145-.6-.224-.171-.067-.342-.139-.515-.211-.2-.082-.391-.164-.588-.253s-.388-.183-.582-.278-.359-.17-.539-.264c-.237-.122-.476-.256-.715-.39-.135-.075-.269-.142-.405-.22a30.973,30.973,0,0,1-2.846-1.9,40.358,40.358,0,0,1-7.08-6.739,49.912,49.912,0,0,1-4.8-6.909A47.661,47.661,0,0,1,45.7,312.652c-.016-.071-.025-.141-.041-.211a33.813,33.813,0,0,1-.9-7.474c0-.58.025-1.145.061-1.7.006-.081.007-.165.014-.245,0-.056.01-.111.015-.167.038-.465.088-.922.152-1.367.014-.095.027-.191.041-.285.023-.148.054-.288.079-.434.037-.206.078-.409.12-.611.046-.217.087-.437.139-.648.057-.23.126-.448.19-.67.024-.084.046-.169.071-.252.01-.032.017-.066.027-.1.057-.183.113-.366.175-.543.076-.219.163-.426.247-.637.108-.27.216-.539.336-.795.087-.185.18-.362.274-.541.037-.071.073-.142.111-.212.1-.185.2-.366.313-.542s.2-.318.305-.472q.07-.1.141-.208c.079-.112.157-.225.238-.333.061-.081.126-.158.189-.237s.11-.142.168-.211c.112-.134.229-.263.346-.39l.112-.12q.215-.226.44-.437l0,0c.068-.064.146-.113.216-.175.183-.16.373-.312.565-.457.159-.12.319-.238.484-.349.2-.134.409-.255.619-.374.172-.1.342-.194.519-.281.22-.108.448-.2.676-.291.181-.072.36-.149.546-.211.139-.046.281-.087.423-.128.1-.03.211-.051.316-.078.187-.048.371-.1.562-.14.266-.053.542-.084.817-.118.186-.023.368-.055.558-.069.165-.012.337-.009.507-.011v-2.08a12.688,12.688,0,0,0-6.063,1.642h0c-.261.151-.516.315-.765.485l-.129.091a12.3,12.3,0,0,0-1.993,1.763c-.067.074-.134.147-.2.223-.18.207-.357.417-.526.638-.053.069-.1.143-.154.214a14.262,14.262,0,0,0-.794,1.205c-.092.155-.183.308-.27.468q-.164.3-.319.62c-.1.212-.2.431-.3.652s-.188.432-.274.656c-.134.348-.259.7-.375,1.07-.056.174-.106.354-.157.532q-.134.468-.247.953c-.037.157-.077.313-.11.474-.1.473-.186.956-.257,1.452-.017.12-.029.245-.045.366q-.08.623-.13,1.269c-.012.154-.024.308-.033.464-.033.549-.055,1.106-.055,1.678a37.624,37.624,0,0,0,1.721,10.807,49.222,49.222,0,0,0,2.017,5.451q.59,1.348,1.26,2.671a53.655,53.655,0,0,0,4.647,7.561,41.425,41.425,0,0,0,12.212,11.367,24.676,24.676,0,0,0,5.729,2.455l2.7-1.553C72.88,343.711,72.79,343.7,72.7,343.687Z" transform="translate(-42.685 -286.4)" fill="#33264c"/>
              </g>
            </g>
            <g id="Grupo_5032" data-name="Grupo 5032" transform="translate(0 24.768)">
              <g id="Grupo_5030" data-name="Grupo 5030" transform="translate(7.868 1.206)">
                <path id="Caminho_16990" data-name="Caminho 16990" d="M92.216,324.4c0-12.114-8.5-26.842-18.994-32.9-5.261-3.037-10.021-3.315-13.46-1.311-1.045.609-8.071,4.649-9.12,5.25-3.455,1.976-5.594,6.239-5.594,12.313,0,12.113,8.5,26.842,18.994,32.9,5.255,3.034,10.011,3.315,13.449,1.317,1.05-.609,8.11-4.665,9.171-5.279C90.094,334.7,92.216,330.45,92.216,324.4Z" transform="translate(-45.047 -288.906)" fill="#aa2972"/>
                <path id="Caminho_16991" data-name="Caminho 16991" d="M92.216,324.4c0-12.114-8.5-26.842-18.994-32.9-5.261-3.037-10.021-3.315-13.46-1.311-1.045.609-8.071,4.649-9.12,5.25-3.455,1.976-5.594,6.239-5.594,12.313,0,12.113,8.5,26.842,18.994,32.9,5.255,3.034,10.011,3.315,13.449,1.317,1.05-.609,8.11-4.665,9.171-5.279C90.094,334.7,92.216,330.45,92.216,324.4Z" transform="translate(-45.047 -288.906)" opacity="0.3"/>
              </g>
              <ellipse id="Elipse_330" data-name="Elipse 330" cx="15.509" cy="26.862" rx="15.509" ry="26.862" transform="translate(0 15.509) rotate(-30)" fill="#aa2972"/>
              <ellipse id="Elipse_331" data-name="Elipse 331" cx="12.036" cy="20.848" rx="12.036" ry="20.848" transform="matrix(0.866, -0.5, 0.5, 0.866, 5.271, 19.447)" fill="#17022d"/>
              <g id="Grupo_5031" data-name="Grupo 5031" transform="translate(10.73 12.826)">
                <path id="Caminho_16992" data-name="Caminho 16992" d="M75.778,317.988,67.059,326.7,56.647,308.657c2.661-1.548,6.349-1.33,10.412,1.018A28.816,28.816,0,0,1,75.778,317.988Z" transform="translate(-52.325 -307.668)" fill="#33264c"/>
                <path id="Caminho_16993" data-name="Caminho 16993" d="M88.2,341.56c0,4.7-1.652,8-4.323,9.529l-10.422-18.05,8.718-8.708C85.825,329.537,88.2,335.917,88.2,341.56Z" transform="translate(-58.724 -314.011)" fill="#2f1c47"/>
                <path id="Caminho_16994" data-name="Caminho 16994" d="M78.529,356.441c-2.67,1.548-6.349,1.33-10.422-1.018A28.354,28.354,0,0,1,59.4,347.1l8.708-8.708Z" transform="translate(-53.372 -319.363)" fill="#33264c"/>
                <path id="Caminho_16995" data-name="Caminho 16995" d="M64.4,327.3l-8.708,8.708c-3.658-5.205-6.027-11.575-6.027-17.208,0-4.708,1.652-8,4.322-9.539Z" transform="translate(-49.668 -308.276)" fill="#2f1c47"/>
              </g>
            </g>
            <g id="Grupo_5033" data-name="Grupo 5033" transform="translate(32.483 9.565)">
              <path id="Caminho_16996" data-name="Caminho 16996" d="M92.377,376.355l.095,0q.48.036.953.039l.152,0a12.6,12.6,0,0,0,1.366-.078c.016,0,.032,0,.048,0a11.171,11.171,0,0,0,1.128-.206c.157-.037.315-.071.468-.115.3-.081.583-.175.866-.281.217-.082.428-.174.637-.27.1-.045.2-.1.3-.144a10,10,0,0,0,2.5-1.768,12.214,12.214,0,0,1-5.065.3l-4.229,2.431C91.856,376.3,92.119,376.333,92.377,376.355Z" transform="translate(-87.381 -304.71)" fill="#17022d"/>
              <path id="Caminho_16997" data-name="Caminho 16997" d="M86.87,281.7a6.658,6.658,0,0,0,1.968,4.291c9.048,8.313,15.668,21.82,15.668,33.254,0,8.328-3.5,14.267-9.208,16.231h0a10.283,10.283,0,0,0,2.092-.948L101.6,332.1c4.471-2.577,7.131-8.027,7.131-15.292,0-11.435-6.62-24.942-15.668-33.254a6.659,6.659,0,0,1-1.968-4.292V262.411l-4.221,2.437-2.078-1.2,2.078,1.2Z" transform="translate(-84.792 -262.411)" fill="#2f1c47"/>
              <path id="Caminho_16998" data-name="Caminho 16998" d="M88.838,286.749a6.658,6.658,0,0,1-1.968-4.291V265.608l-2.078-1.2v19.056a4.151,4.151,0,0,0,.084.752c.012.064.025.127.04.191a6.049,6.049,0,0,0,.23.778,7.2,7.2,0,0,0,.549,1.137c.054.09.114.173.171.259a6.116,6.116,0,0,0,.545.723,4.571,4.571,0,0,0,.4.395l0,0c.5.435.987.894,1.471,1.361q.193.187.384.377.634.63,1.249,1.291c.061.066.123.128.183.194.459.5.906,1.019,1.347,1.546.114.137.226.275.339.413q.546.67,1.071,1.363c.084.11.17.219.253.33q.62.832,1.206,1.7c.093.137.183.276.275.414q.478.717.934,1.453c.087.141.176.281.261.422q.543.9,1.049,1.813c.068.122.131.245.2.367q.418.775.808,1.561c.081.162.162.324.241.487.3.629.6,1.262.873,1.9.036.083.068.167.1.25q.362.852.688,1.711c.066.172.131.344.194.517.24.651.469,1.3.676,1.957s.393,1.312.567,1.968c.037.141.075.281.11.42.163.64.312,1.28.44,1.917.022.107.04.213.06.32q.17.878.3,1.749c.015.106.033.211.047.317.085.631.149,1.258.2,1.882.011.136.019.272.027.408.041.638.069,1.272.069,1.9a19.113,19.113,0,0,1-2.053,9.236,12.276,12.276,0,0,1-.961,1.488q-.261.346-.542.663t-.574.6a9.989,9.989,0,0,1-2.5,1.768c-.1.05-.2.1-.3.146-.209.1-.42.188-.637.269q-.391.148-.8.265l-.068.016c-.154.042-.31.079-.468.115-.094.022-.185.049-.281.068q-.416.085-.847.138l-.048,0a12.184,12.184,0,0,1-1.366.078c-.029,0-.056,0-.085,0l-.068,0c-.068,0-.133,0-.2,0-.248-.006-.5-.022-.753-.042l-.094,0c-.259-.022-.523-.055-.787-.091l-2.7,1.553a17.252,17.252,0,0,0,4.608.666c.214,0,.419-.023.629-.032.276-.012.562-.015.821-.041.163-.016.319-.048.48-.069.3-.042.6-.084.881-.139.146-.03.286-.067.429-.1.063-.016.113-.033.173-.048.268-.069.536-.134.794-.219.061-.02.123-.038.184-.059,5.711-1.965,9.208-7.9,9.208-16.231C104.506,308.568,97.886,295.062,88.838,286.749Z" transform="translate(-84.792 -263.171)" fill="#33264c"/>
            </g>
            <g id="Grupo_5034" data-name="Grupo 5034" transform="translate(19.598 4.691)">
              <path id="Caminho_16999" data-name="Caminho 16999" d="M72.805,277.782c.03-.012.061-.023.091-.037.047-.022.1-.046.141-.072.512-.3,3.791-2.19,4.223-2.442a1.785,1.785,0,0,0,.825-1.637V254.542l-4.221,2.437v19.056A1.735,1.735,0,0,1,72.805,277.782Z" transform="translate(-67.344 -254.542)" fill="#2f1c47"/>
              <path id="Caminho_17000" data-name="Caminho 17000" d="M64.392,286.516a16.484,16.484,0,0,1,3.021.287.809.809,0,0,0,1.016-.819v-1.893a13.327,13.327,0,0,0-4.442.8v1.648C64.124,286.538,64.253,286.516,64.392,286.516Z" transform="translate(-63.987 -265.79)" fill="#2f1c47"/>
              <path id="Caminho_17001" data-name="Caminho 17001" d="M64.923,278.114a14.293,14.293,0,0,1,1.5.14c.483.071.976.174,1.475.3.03.007.058.011.087.018l.055.011h0a2.905,2.905,0,0,0,.485.079l.044,0a2.309,2.309,0,0,0,.406-.011l.072-.01a1.918,1.918,0,0,0,.372-.092l.028-.011a1.735,1.735,0,0,0,1.06-1.748V257.734h0l-2.078-1.209V275.49a.809.809,0,0,1-1.016.819,16.479,16.479,0,0,0-3.021-.287c-.139,0-.268.022-.405.025v2.08c.147,0,.292-.009.439-.009C64.593,278.12,64.754,278.107,64.923,278.114Z" transform="translate(-63.987 -255.296)" fill="#33264c"/>
            </g>
          </g>
          <g id="Grupo_5036" data-name="Grupo 5036" transform="translate(20.232 129.388)">
            <path id="Caminho_17002" data-name="Caminho 17002" d="M72.216,239.529a2.965,2.965,0,0,0-2.985.3,9.329,9.329,0,0,0-4.221,7.311,2.955,2.955,0,0,0,1.252,2.742l16.868,9.738,5.949-10.351Z" transform="translate(-65.011 -239.248)" fill="#aa2972"/>
            <path id="Caminho_17003" data-name="Caminho 17003" d="M72.216,239.529a2.965,2.965,0,0,0-2.985.3,9.329,9.329,0,0,0-4.221,7.311,2.955,2.955,0,0,0,1.252,2.742l16.868,9.738,5.949-10.351Z" transform="translate(-65.011 -239.248)" opacity="0.3"/>
            <path id="Caminho_17004" data-name="Caminho 17004" d="M65.518,247.846a7.64,7.64,0,0,0-.507,2.563,2.956,2.956,0,0,0,1.252,2.742l16.868,9.738,2.1-3.66Z" transform="translate(-65.011 -242.521)" opacity="0.3"/>
            <path id="Caminho_17005" data-name="Caminho 17005" d="M92.271,262.874a9.33,9.33,0,0,1,4.221-7.311A2.573,2.573,0,0,1,100.713,258a9.329,9.329,0,0,1-4.221,7.311,2.573,2.573,0,0,1-4.221-2.437Z" transform="translate(-75.388 -245.24)" fill="#aa2972"/>
            <path id="Caminho_17006" data-name="Caminho 17006" d="M92.271,262.874a9.33,9.33,0,0,1,4.221-7.311A2.573,2.573,0,0,1,100.713,258a9.329,9.329,0,0,1-4.221,7.311,2.573,2.573,0,0,1-4.221-2.437Z" transform="translate(-75.388 -245.24)" opacity="0.2"/>
            <path id="Caminho_17007" data-name="Caminho 17007" d="M95.221,263.27a5.291,5.291,0,0,1,2.394-4.147,1.459,1.459,0,0,1,2.394,1.382,5.293,5.293,0,0,1-2.394,4.147,1.459,1.459,0,0,1-2.394-1.382Z" transform="translate(-76.511 -246.689)" fill="#2f1c47"/>
            <path id="Caminho_17008" data-name="Caminho 17008" d="M98.889,259.884a2.138,2.138,0,0,0-.255-1.071,2.174,2.174,0,0,0-1.019.316,5.291,5.291,0,0,0-2.394,4.147,2.138,2.138,0,0,0,.255,1.071,2.188,2.188,0,0,0,1.019-.316A5.293,5.293,0,0,0,98.889,259.884Z" transform="translate(-76.511 -246.696)" fill="#17022d"/>
          </g>
          <g id="Grupo_5037" data-name="Grupo 5037" transform="translate(129.974 66.029)">
            <path id="Caminho_17009" data-name="Caminho 17009" d="M249.41,137.226a2.965,2.965,0,0,0-2.985.3,9.329,9.329,0,0,0-4.221,7.311,2.957,2.957,0,0,0,1.252,2.742l16.867,9.738,5.949-10.351Z" transform="translate(-242.205 -136.945)" fill="#aa2972"/>
            <path id="Caminho_17010" data-name="Caminho 17010" d="M249.41,137.226a2.965,2.965,0,0,0-2.985.3,9.329,9.329,0,0,0-4.221,7.311,2.957,2.957,0,0,0,1.252,2.742l16.867,9.738,5.949-10.351Z" transform="translate(-242.205 -136.945)" opacity="0.3"/>
            <path id="Caminho_17011" data-name="Caminho 17011" d="M242.712,145.543a7.64,7.64,0,0,0-.507,2.563,2.957,2.957,0,0,0,1.252,2.742l16.867,9.738,2.1-3.66Z" transform="translate(-242.205 -140.218)" opacity="0.3"/>
            <path id="Caminho_17012" data-name="Caminho 17012" d="M269.466,160.571a9.329,9.329,0,0,1,4.221-7.311,2.573,2.573,0,0,1,4.221,2.437,9.329,9.329,0,0,1-4.221,7.311,2.572,2.572,0,0,1-4.221-2.437Z" transform="translate(-252.582 -142.936)" fill="#aa2972"/>
            <path id="Caminho_17013" data-name="Caminho 17013" d="M269.466,160.571a9.329,9.329,0,0,1,4.221-7.311,2.573,2.573,0,0,1,4.221,2.437,9.329,9.329,0,0,1-4.221,7.311,2.572,2.572,0,0,1-4.221-2.437Z" transform="translate(-252.582 -142.936)" opacity="0.2"/>
            <path id="Caminho_17014" data-name="Caminho 17014" d="M272.415,160.967a5.291,5.291,0,0,1,2.394-4.147A1.459,1.459,0,0,1,277.2,158.2a5.293,5.293,0,0,1-2.394,4.147,1.459,1.459,0,0,1-2.394-1.382Z" transform="translate(-253.705 -144.386)" fill="#2f1c47"/>
            <path id="Caminho_17015" data-name="Caminho 17015" d="M276.083,157.581a2.136,2.136,0,0,0-.255-1.071,2.167,2.167,0,0,0-1.019.316,5.291,5.291,0,0,0-2.394,4.147,2.138,2.138,0,0,0,.255,1.071,2.181,2.181,0,0,0,1.019-.317A5.291,5.291,0,0,0,276.083,157.581Z" transform="translate(-253.705 -144.393)" fill="#17022d"/>
          </g>
          <g id="Grupo_5038" data-name="Grupo 5038" transform="translate(127.785 14.378)">
            <path id="Caminho_17016" data-name="Caminho 17016" d="M261.054,70.3,242.847,59.785a35.449,35.449,0,0,0-4.177-6.237C248.446,55.239,256.172,61.162,261.054,70.3Z" transform="translate(-238.67 -53.548)" fill="#aa2972"/>
            <path id="Caminho_17017" data-name="Caminho 17017" d="M261.054,70.3,242.847,59.785a35.449,35.449,0,0,0-4.177-6.237C248.446,55.239,256.172,61.162,261.054,70.3Z" transform="translate(-238.67 -53.548)" opacity="0.2"/>
          </g>
          <g id="Grupo_5039" data-name="Grupo 5039" transform="translate(17.144 4.493)">
            <path id="Caminho_17018" data-name="Caminho 17018" d="M200.865,116a83.476,83.476,0,0,0,1.428-14.931c0-33.869-23.778-47.6-53.11-30.663s-53.11,58.119-53.109,91.989a58.911,58.911,0,0,0,1.431,13.3l-6.847,3.953a68.028,68.028,0,0,1-1.257-13.4c0-38.125,26.765-84.483,59.781-103.545s59.782-3.609,59.782,34.515a92.427,92.427,0,0,1-1.257,14.849l-6.829,3.943" transform="translate(-71.207 -44.038)" fill="#2f1c47"/>
            <path id="Caminho_17019" data-name="Caminho 17019" d="M254.391,121.418a83.443,83.443,0,0,0,1.429-14.934c0-22.339-10.347-35.91-25.81-37.713,4.837,6.45,7.614,15.665,7.614,27.243a83.412,83.412,0,0,1-1.423,14.9Z" transform="translate(-124.732 -49.458)" fill="#17022d"/>
            <path id="Caminho_17020" data-name="Caminho 17020" d="M179.187,51.458C168.46,45.882,153.959,47.036,138,56.251c-33.021,19.058-59.783,65.416-59.783,103.543a68.214,68.214,0,0,0,1.254,13.392L61.289,162.694a67.587,67.587,0,0,1-1.265-13.4c0-38.127,26.761-84.485,59.783-103.543,16.493-9.528,31.42-10.425,42.237-4.187C164.81,43.161,175.021,49.062,179.187,51.458Z" transform="translate(-60.024 -37.587)" fill="#33264c"/>
            <path id="Caminho_17021" data-name="Caminho 17021" d="M73.659,226.254a2.877,2.877,0,0,1-1.427-.432,6.773,6.773,0,0,1-3.06-5.3c0-1.413.727-2.325,1.852-2.325a2.877,2.877,0,0,1,1.427.432,6.772,6.772,0,0,1,3.06,5.3C75.51,225.342,74.784,226.254,73.659,226.254Z" transform="translate(-63.506 -106.339)" fill="#17022d"/>
          </g>
          <g id="Grupo_5042" data-name="Grupo 5042" transform="translate(20.435)">
            <g id="Grupo_5040" data-name="Grupo 5040">
              <path id="Caminho_17022" data-name="Caminho 17022" d="M183.908,45.046a35.349,35.349,0,0,0-17.188-4.2c-9.126,0-18.857,2.945-28.935,8.757-23.313,13.459-43.659,40.132-54.251,68.259l-18.2-10.5C75.932,79.232,96.277,52.56,119.591,39.1c10.078-5.812,19.808-8.768,28.934-8.768a35.2,35.2,0,0,1,17.793,4.547C169.195,36.548,180.057,42.818,183.908,45.046Z" transform="translate(-65.339 -30.333)" fill="#aa2972"/>
              <path id="Caminho_17023" data-name="Caminho 17023" d="M183.908,45.046a35.349,35.349,0,0,0-17.188-4.2c-9.126,0-18.857,2.945-28.935,8.757-23.313,13.459-43.659,40.132-54.251,68.259l-18.2-10.5C75.932,79.232,96.277,52.56,119.591,39.1c10.078-5.812,19.808-8.768,28.934-8.768a35.2,35.2,0,0,1,17.793,4.547C169.195,36.548,180.057,42.818,183.908,45.046Z" transform="translate(-65.339 -30.333)" fill="#fff" opacity="0.6"/>
            </g>
            <g id="Grupo_5041" data-name="Grupo 5041" transform="translate(18.196 10.514)">
              <path id="Caminho_17024" data-name="Caminho 17024" d="M206.251,67.919C200.417,57,190.513,50.669,177.9,50.669c-8.533,0-17.7,2.788-27.255,8.308C127.8,72.169,107.875,98.415,97.63,126.006l-2.911-1.68c10.592-28.128,30.938-54.8,54.251-68.259,10.078-5.812,19.809-8.757,28.935-8.757,13.291,0,23.851,6.282,30.334,17.188Z" transform="translate(-94.719 -47.31)" fill="#aa2972"/>
            </g>
          </g>
        </g>
        <path id="Musical_note" data-name="Musical note" d="M396.509,108.322l-3.035,10a2.71,2.71,0,0,0-4.234,1.4,2.736,2.736,0,0,0,5.239,1.581l2.723-8.963,9.743.363,0,0h0l-2.682,8.889a2.707,2.707,0,0,0-.826-.425,2.735,2.735,0,1,0,1.829,3.411h0l4.477-14.841Z" transform="translate(-135.814 -29.688)" fill="#aa2972"/>
        <path id="Musical_note-2" data-name="Musical note" d="M364.692,291.77l-3.035,10a2.729,2.729,0,1,0,1,2.985l2.724-8.963,9.743.363,0,0h0l-2.682,8.889a2.729,2.729,0,1,0,1,2.986h0l4.477-14.841Z" transform="translate(-123.703 -99.52)" fill="#aa2972"/>
        <path id="Musical_note-3" data-name="Musical note" d="M353.422,162.366a4.825,4.825,0,0,1,1.965-.491,10.425,10.425,0,0,1,2.7.308,18.763,18.763,0,0,0,3.588.616,4.525,4.525,0,0,0,3.349-1.167,4.721,4.721,0,0,1-2.1-.276c-1.6-.6-2.887-2.262-4.329-3.175-2.147-1.359-4.272-1.25-6.886-.587.006,2.227-.043,4.461-.066,6.69q-.027,2.624-.053,5.248c0,.166-.084,2.38-.084,2.38a4.559,4.559,0,0,0-1.95-.477,3.753,3.753,0,1,0,3.723,3.785Z" transform="translate(-119.315 -48.263)" fill="#aa2972"/>
        <path id="Musical_note-4" data-name="Musical note" d="M429.164,251.007a4.833,4.833,0,0,1,2.025.074,10.422,10.422,0,0,1,2.512,1.046,18.8,18.8,0,0,0,3.277,1.586,4.524,4.524,0,0,0,3.541-.193,4.713,4.713,0,0,1-1.938-.847c-1.37-1.018-2.147-2.973-3.279-4.251-1.686-1.9-3.758-2.386-6.454-2.474-.611,2.142-1.278,4.274-1.918,6.41l-1.506,5.028c-.048.159-.741,2.264-.741,2.264a4.558,4.558,0,0,0-1.74-1,3.753,3.753,0,1,0,2.528,4.669Z" transform="translate(-146.852 -82.078)" fill="#aa2972"/>
        <path id="Musical_note-5" data-name="Musical note" d="M309.808,96.024a5.234,5.234,0,0,1,1.27-1.795,11.31,11.31,0,0,1,2.443-1.659,20.339,20.339,0,0,0,3.39-2.033,4.91,4.91,0,0,0,1.93-3.33,5.119,5.119,0,0,1-1.921,1.256c-1.738.639-3.976.181-5.809.45-2.729.4-4.4,1.994-6.084,4.389,1.581,1.83,3.121,3.7,4.68,5.554l3.67,4.357c.116.138,1.615,2.019,1.615,2.019a4.949,4.949,0,0,0-1.942.986,4.074,4.074,0,1,0,5.742.481Z" transform="translate(-103.802 -21.65)" fill="#aa2972"/>
        <g id="Controls" transform="translate(224.9 125.191)">
          <g id="Play_Pause" data-name="Play Pause" transform="translate(19.026 8.533)">
            <g id="Box">
              <g id="Speech_Bubble" data-name="Speech Bubble">
                <g id="Grupo_5043" data-name="Grupo 5043">
                  <path id="Caminho_17025" data-name="Caminho 17025" d="M390.731,197.4,374.5,206.777a1.153,1.153,0,0,0-.521.9v18.732a1.136,1.136,0,0,0,.524.9l1.867,1.074a1.167,1.167,0,0,0,1.045,0L393.647,219a1.154,1.154,0,0,0,.521-.9V199.339a1.138,1.138,0,0,0-.524-.9l-1.867-1.047A1.168,1.168,0,0,0,390.731,197.4Z" transform="translate(-373.973 -197.273)" fill="#aa2972"/>
                  <path id="Caminho_17026" data-name="Caminho 17026" d="M378.682,229.118V210.359a1.151,1.151,0,0,1,.521-.9l16.236-9.377c.287-.166.521-.032.521.3v18.758a1.154,1.154,0,0,1-.521.9L379.2,229.419C378.915,229.585,378.682,229.451,378.682,229.118Z" transform="translate(-375.766 -198.314)" fill="#aa2972"/>
                  <path id="Caminho_17027" data-name="Caminho 17027" d="M378.682,229.118V210.359a1.151,1.151,0,0,1,.521-.9l16.236-9.377c.287-.166.521-.032.521.3v18.758a1.154,1.154,0,0,1-.521.9L379.2,229.419C378.915,229.585,378.682,229.451,378.682,229.118Z" transform="translate(-375.766 -198.314)" fill="#aa2972"/>
                  <path id="Caminho_17028" data-name="Caminho 17028" d="M377.41,234.447a1.2,1.2,0,0,1-1.046.006l-1.867-1.075a1.136,1.136,0,0,1-.524-.9V213.749a1.075,1.075,0,0,1,.166-.532l2.9,1.658a1.038,1.038,0,0,0-.154.512v18.758C376.889,234.45,377.1,234.625,377.41,234.447Z" transform="translate(-373.973 -203.342)" opacity="0.2"/>
                  <path id="Caminho_17029" data-name="Caminho 17029" d="M394.261,199.244c-.041-.263-.255-.356-.515-.207l-16.234,9.378a1.067,1.067,0,0,0-.368.39l-2.906-1.658a1.039,1.039,0,0,1,.359-.371l16.236-9.378a1.166,1.166,0,0,1,1.045,0l1.866,1.047A1.149,1.149,0,0,1,394.261,199.244Z" transform="translate(-374.073 -197.272)" fill="#fff" opacity="0.4"/>
                </g>
              </g>
            </g>
            <path id="Caminho_17030" data-name="Caminho 17030" d="M395.019,214.333c0,4.723-2.872,10.21-6.414,12.255s-6.414-.126-6.414-4.849,2.871-10.209,6.414-12.254S395.019,209.61,395.019,214.333Z" transform="translate(-377.101 -201.628)" fill="#fafafa"/>
            <g id="Grupo_5044" data-name="Grupo 5044" transform="translate(8.798 11.83)">
              <path id="Caminho_17031" data-name="Caminho 17031" d="M390.017,220.082l0,5.465a.866.866,0,0,1-.392.679l-1.052.609c-.217.125-.392.024-.392-.226v-5.464a.866.866,0,0,1,.392-.679l1.054-.61C389.842,219.731,390.017,219.833,390.017,220.082Z" transform="translate(-388.179 -217.679)" fill="#33264c"/>
              <path id="Caminho_17032" data-name="Caminho 17032" d="M395.953,216.654l0,5.465a.867.867,0,0,1-.392.679l-1.052.608c-.217.125-.392.024-.392-.226v-5.464a.866.866,0,0,1,.392-.679l1.054-.609C395.778,216.3,395.953,216.4,395.953,216.654Z" transform="translate(-390.439 -216.374)" fill="#33264c"/>
            </g>
          </g>
          <g id="Next" transform="translate(41.227)">
            <g id="Box-2" data-name="Box">
              <g id="Speech_Bubble-2" data-name="Speech Bubble">
                <g id="Grupo_5045" data-name="Grupo 5045">
                  <path id="Caminho_17033" data-name="Caminho 17033" d="M423.226,183.6l-12.989,7.5a.922.922,0,0,0-.417.723v14.985a.908.908,0,0,0,.42.717l1.494.86a.933.933,0,0,0,.836,0l12.989-7.5a.921.921,0,0,0,.417-.722V185.148a.91.91,0,0,0-.419-.718l-1.494-.837A.934.934,0,0,0,423.226,183.6Z" transform="translate(-409.82 -183.495)" fill="#aa2972"/>
                  <path id="Caminho_17034" data-name="Caminho 17034" d="M413.587,208.97V193.964a.921.921,0,0,1,.417-.722l12.989-7.5c.23-.133.417-.025.417.241v15.006a.921.921,0,0,1-.417.722L414,209.211C413.773,209.345,413.587,209.237,413.587,208.97Z" transform="translate(-411.254 -184.328)" fill="#aa2972"/>
                  <path id="Caminho_17035" data-name="Caminho 17035" d="M413.587,208.97V193.964a.921.921,0,0,1,.417-.722l12.989-7.5c.23-.133.417-.025.417.241v15.006a.921.921,0,0,1-.417.722L414,209.211C413.773,209.345,413.587,209.237,413.587,208.97Z" transform="translate(-411.254 -184.328)" fill="#aa2972"/>
                  <path id="Caminho_17036" data-name="Caminho 17036" d="M412.57,213.234a.956.956,0,0,1-.837,0l-1.493-.86a.908.908,0,0,1-.42-.717V196.675a.857.857,0,0,1,.133-.425l2.323,1.326a.828.828,0,0,0-.123.411v15.006C412.153,213.236,412.325,213.376,412.57,213.234Z" transform="translate(-409.82 -188.35)" opacity="0.2"/>
                  <path id="Caminho_17037" data-name="Caminho 17037" d="M426.051,185.072c-.033-.21-.2-.286-.412-.166l-12.987,7.5a.851.851,0,0,0-.295.312l-2.325-1.326a.836.836,0,0,1,.287-.3l12.989-7.5a.933.933,0,0,1,.836,0l1.493.837A.92.92,0,0,1,426.051,185.072Z" transform="translate(-409.901 -183.495)" fill="#fff" opacity="0.4"/>
                </g>
              </g>
            </g>
            <g id="Grupo_5046" data-name="Grupo 5046" transform="translate(5.55 7.99)">
              <path id="Caminho_17038" data-name="Caminho 17038" d="M429.581,196.675v5.465a.868.868,0,0,1-.392.679l-1.053.609c-.216.125-.392.024-.392-.226v-5.464a.868.868,0,0,1,.392-.679l1.055-.61C429.406,196.324,429.581,196.426,429.581,196.675Z" transform="translate(-422.193 -196.396)" fill="#33264c"/>
              <path id="Caminho_17039" data-name="Caminho 17039" d="M418.782,203.382v5.352c0,.4.212.479.474.177l4.94-5.707c.262-.3.15-.548-.25-.548h-4.44A.725.725,0,0,0,418.782,203.382Z" transform="translate(-418.782 -198.779)" fill="#33264c"/>
            </g>
          </g>
          <g id="Previews" transform="translate(0 23.807)">
            <g id="Box-3" data-name="Box">
              <g id="Speech_Bubble-3" data-name="Speech Bubble">
                <g id="Grupo_5047" data-name="Grupo 5047">
                  <path id="Caminho_17040" data-name="Caminho 17040" d="M356.659,222.036l-12.989,7.5a.922.922,0,0,0-.417.722v14.986a.909.909,0,0,0,.42.717l1.493.859a.936.936,0,0,0,.837,0l12.989-7.5a.922.922,0,0,0,.417-.722V223.587a.909.909,0,0,0-.419-.718l-1.494-.837A.933.933,0,0,0,356.659,222.036Z" transform="translate(-343.253 -221.934)" fill="#aa2972"/>
                  <path id="Caminho_17041" data-name="Caminho 17041" d="M347.019,247.41V232.4a.922.922,0,0,1,.417-.722l12.989-7.5c.23-.133.417-.025.417.24v15.007a.922.922,0,0,1-.417.722l-12.989,7.5C347.206,247.784,347.019,247.676,347.019,247.41Z" transform="translate(-344.687 -222.767)" fill="#aa2972"/>
                  <path id="Caminho_17042" data-name="Caminho 17042" d="M347.019,247.41V232.4a.922.922,0,0,1,.417-.722l12.989-7.5c.23-.133.417-.025.417.24v15.007a.922.922,0,0,1-.417.722l-12.989,7.5C347.206,247.784,347.019,247.676,347.019,247.41Z" transform="translate(-344.687 -222.767)" fill="#aa2972"/>
                  <path id="Caminho_17043" data-name="Caminho 17043" d="M346,251.674a.958.958,0,0,1-.837,0l-1.493-.86a.906.906,0,0,1-.42-.717V235.115a.861.861,0,0,1,.133-.425l2.323,1.326a.832.832,0,0,0-.123.41v15.006C345.585,251.676,345.757,251.816,346,251.674Z" transform="translate(-343.253 -226.79)" opacity="0.2"/>
                  <path id="Caminho_17044" data-name="Caminho 17044" d="M359.483,223.511c-.033-.21-.2-.285-.412-.165l-12.987,7.5a.859.859,0,0,0-.295.312l-2.325-1.326a.831.831,0,0,1,.287-.3l12.989-7.5a.931.931,0,0,1,.836,0l1.493.837A.919.919,0,0,1,359.483,223.511Z" transform="translate(-343.333 -221.934)" fill="#fff" opacity="0.4"/>
                </g>
              </g>
            </g>
            <g id="Grupo_5048" data-name="Grupo 5048" transform="translate(5.347 7.762)">
              <path id="Caminho_17045" data-name="Caminho 17045" d="M353.724,240.7v5.465a.87.87,0,0,1-.392.679l-1.053.609c-.216.125-.392.024-.392-.227v-5.464a.869.869,0,0,1,.392-.679l1.055-.609C353.549,240.347,353.724,240.448,353.724,240.7Z" transform="translate(-351.886 -236.732)" fill="#33264c"/>
              <path id="Caminho_17046" data-name="Caminho 17046" d="M360.814,240.427v-5.572c0-.429-.23-.517-.515-.2l-5.279,5.964c-.284.321-.167.581.262.581h4.756A.777.777,0,0,0,360.814,240.427Z" transform="translate(-353.02 -234.467)" fill="#33264c"/>
            </g>
          </g>
        </g>
      </g>
    </g>
  </g>
</svg>
